<svg width="886" height="245" viewBox="0 0 886 245" fill="none" xmlns="http://www.w3.org/2000/svg">
<path d="M41.375 197V51.5455H143.648V83.3636H80.8636V108.364H137.398V140.182H80.8636V197H41.375ZM158.172 197V51.5455H260.445V83.3636H197.661V108.364H254.195V140.182H197.661V197H158.172ZM361.048 51.5455H400.537V144.727C400.537 155.807 397.885 165.395 392.582 173.491C387.327 181.541 379.988 187.767 370.565 192.17C361.143 196.527 350.205 198.705 337.753 198.705C325.205 198.705 314.221 196.527 304.798 192.17C295.376 187.767 288.037 181.541 282.781 173.491C277.573 165.395 274.969 155.807 274.969 144.727V51.5455H314.457V141.318C314.457 145.816 315.452 149.841 317.44 153.392C319.429 156.896 322.175 159.642 325.679 161.631C329.23 163.619 333.255 164.614 337.753 164.614C342.298 164.614 346.323 163.619 349.827 161.631C353.33 159.642 356.077 156.896 358.065 153.392C360.054 149.841 361.048 145.816 361.048 141.318V51.5455ZM419.305 197V51.5455H521.577V83.3636H458.793V108.364H515.327V140.182H458.793V197H419.305ZM536.102 197V51.5455H638.374V83.3636H575.59V108.364H632.124V140.182H575.59V197H536.102ZM692.387 51.5455V197H652.898V51.5455H692.387ZM753.431 51.5455L777.295 93.875H778.431L802.579 51.5455H846.613L803.147 124.273L848.317 197H803.147L778.431 153.818H777.295L752.579 197H707.692L752.295 124.273L709.113 51.5455H753.431Z" fill="white"/>
</svg>
