<svg width="282" height="340" viewBox="0 0 282 340" fill="none" xmlns="http://www.w3.org/2000/svg">
<path d="M73.5 45.5L27 49.5C27 49.5 46.2719 71.8906 63 79C83 87.5 109 90 109 90C109 90 97.5 79 87.5 68.5C80.2481 60.8856 73.5 45.5 73.5 45.5Z" fill="white"/>
<path d="M163.427 340L264.427 336.5C264.427 336.5 251.36 300.041 225.928 296.5C202.862 293.289 157.427 315.5 157.427 315.5V313C157.427 313 170.842 306.687 176.427 299.5C182.529 291.649 185.415 285.431 184.927 275.5C184.4 264.772 180.708 257.841 172.427 251C163.152 243.338 154.039 240.852 142.427 244C136.862 245.509 133.928 250.5 129.928 250.5C128.271 250.5 127.213 249.459 126.427 248C125.131 245.593 124.648 243.075 126.427 241C132.428 234 140.478 230.901 150.927 230C163.909 228.88 172.178 232.955 182.427 241C189.863 246.837 193 252.5 197.427 260C202.295 268.246 206.852 275.58 216.427 275.5C226.648 275.414 233.356 267.509 235.427 257.5C237.021 249.802 235 244 230.427 238C221.24 225.945 207.295 211.405 206.427 207.5C205.428 203 205.011 198.252 208.927 195.5C213.19 192.504 221.927 198.5 221.927 198.5C221.927 198.5 251.192 217.3 266.428 211C276.393 206.88 278.496 200.673 280.427 191.5C282.428 182 280.427 161.5 280.427 161.5C280.427 161.5 274.484 111.552 216.427 58.5C158.428 5.5 80.9272 0 80.9272 0C80.9272 0 75.9277 37 116.928 76.5C149.428 107.811 193.927 122 193.927 122C193.927 122 202.549 123.868 204.428 119.5C206.589 114.474 204.76 110.5 197.427 106.5C169.928 91.5 158.5 86.6 137.5 68C120 52.5 106.927 24 106.927 24C106.927 24 149.884 37.1431 184.428 62.5C203.5 76.5 226.829 111.5 227.927 121C228.64 127.164 227.5 130.5 221.428 135.5C215.066 140.738 200.927 140.5 200.927 140.5C200.927 140.5 190.804 140.507 184.428 139.5C177.644 138.429 170 135 167.427 135C160 135 47.9836 173.068 56.4272 257.5C64.9277 342.5 163.427 340 163.427 340Z" fill="white"/>
<path d="M47 261.5C47 274.479 36.4787 285 23.5 285C10.5213 285 0 274.479 0 261.5C0 248.521 10.5213 238 23.5 238C36.4787 238 47 248.521 47 261.5Z" fill="white"/>
<path d="M246 245.5C243.224 237.84 231.5 230.5 231.5 230.5C231.5 230.5 240.936 241.089 242 249.5C242.899 256.604 238.5 267.5 238.5 267.5C238.5 267.5 247.303 259.662 247.5 253C247.588 250.014 247.018 248.308 246 245.5Z" fill="white"/>
<path d="M281.5 326.5H271C271 326.5 263.853 315.765 258.5 309.5C252.76 302.782 243 294.5 243 294.5C243 294.5 259.438 297.894 267.5 305C275.016 311.625 281.5 326.5 281.5 326.5Z" fill="white"/>
</svg>
